<svg xmlns="http://www.w3.org/2000/svg" width="89.124" height="41.298" viewBox="0 0 89.124 41.298">
    <g id="Layer_2" data-name="Layer 2" transform="translate(-16 -6)">
        <g id="Home" transform="translate(16 6)">
            <path id="Path_204" data-name="Path 204" d="M14.324,31.833,3.185,21.084V31.833H0V0H3.185V19.438L13.8,9.549h4.062L6.308,20.3,18.278,31.833Z" fill="#FFFFFF"/>
            <path id="Path_205" data-name="Path 205" d="M56.512,27.878a5.985,5.985,0,0,1-.107,1.38H36.458c.639,4.667,4.249,7.53,9.052,7.53a8.17,8.17,0,0,0,7.32-3.819l2.653,1.59a11.536,11.536,0,0,1-10,5.2c-7.224,0-12.1-5.012-12.1-11.88A11.475,11.475,0,0,1,45.26,16C52.162,15.857,56.512,21.587,56.512,27.878ZM36.458,26.045H53.429c-.634-4.99-4.243-7.535-8.169-7.535A8.468,8.468,0,0,0,36.458,26.045Z" transform="translate(-14.496 -6.946)" fill="#FFFFFF"/>
            <path id="Path_206" data-name="Path 206" d="M96.911,16.88,87.169,41.6c-1.7,4.35-5.091,7.32-9.125,7V45.845c2.97.322,4.984-1.8,6.257-4.667l.639-1.38L74.65,16.88h3.179l8.486,18.991,7.32-18.991Z" transform="translate(-32.419 -7.331)" fill="#FFFFFF"/>
            <path id="Path_207" data-name="Path 207" d="M127.42,39.9A11.88,11.88,0,1,1,139.3,28.02,11.88,11.88,0,0,1,127.42,39.9Zm0-21.113a9.125,9.125,0,1,0,9.125,9.153A9.125,9.125,0,0,0,127.42,18.788Z" transform="translate(-50.176 -7.009)" fill="#FFFFFF"/>
            <path id="Path_208" data-name="Path 208" d="M137.063,30.083A3.151,3.151,0,0,0,133.986,27a3.083,3.083,0,0,0-3.078,3.078,2.778,2.778,0,0,0,1.912,2.755l-.956,4.35h4.141l-.956-4.35A2.829,2.829,0,0,0,137.063,30.083Z" transform="translate(-56.849 -11.725)" fill="#FFFFFF"/>
        </g>
    </g>
</svg>