<svg xmlns="http://www.w3.org/2000/svg" width="175.748" height="41.193" viewBox="0 0 175.748 41.193">
  <g id="mcgill-university-2" transform="translate(-8.504 -75.781)">
    <path id="Path_218" data-name="Path 218" d="M9.373,94.687C7.887,89.41,8.757,84.542,8.757,78.65c5.277-2.664,10.5-2.869,16.19-2.869,4.868,0,11.835.615,16.037,2.869.41,5.534.666,10.452-.769,16.805a35.991,35.991,0,0,1-15.063,21.519C14.8,110.16,11.421,101.963,9.373,94.687Z" fill="#cf4037" fill-rule="evenodd"/>
    <path id="Path_219" data-name="Path 219" d="M14.291,86.951,9.219,92.535c1.127,5.328,4.3,16.447,15.883,23.979A34.757,34.757,0,0,0,40.319,92.382L35.4,86.951l-5.533,5.584L24.846,87l-5.072,5.482-5.483-5.533Zm24.03-5.585c-.052,0-.154-.051,0-.1a.82.82,0,0,1,.666.359c.1-.051.41-.512.717-.359,0,0-1.024,2.255-1.127,2.408a21.291,21.291,0,0,0-2.767-.358,11.2,11.2,0,0,0-2.767.358c-.1-.205-1.127-2.459-1.127-2.459.308-.154.666.308.769.358a.692.692,0,0,1,.563-.358c.256.051.1.1.051.153-1.229.974.563,2.152.974.974,1.64.205,1.178-1.076.769-1.281-.308-.051-.1-.1,0-.1.153-.1.358-.1.358.051,0-.717.051-1.179.41-1.383.41.256.461.666.41,1.383.051-.154.205-.051.359-.051.051.051.307.051.051.154-.41.153-.819,1.537.769,1.229.358,1.18,2.305-.1.922-.972ZM37.245,82.7l.512.563-.922-.154.41-.409Zm-1.435-.615.563,1.024H35.246Zm-1.435.615-.461.563.922-.154-.461-.409Z" fill="#fff" fill-rule="evenodd"/>
    <path id="Path_220" data-name="Path 220" d="M33.709,84.953a9.119,9.119,0,0,0-.461-.974,6.338,6.338,0,0,1,2.665-.41,6.555,6.555,0,0,1,2.51.41s-.205.615-.359,1.025a7.363,7.363,0,0,0-2.254-.359,6.709,6.709,0,0,0-2.1.308Zm4.1-.871a.283.283,0,1,1-.256.256A.329.329,0,0,1,37.808,84.082Zm-.974-.206a.283.283,0,1,1-.256.256A.332.332,0,0,1,36.834,83.876Zm-.973-.1a.308.308,0,1,1-.308.308A.331.331,0,0,1,35.861,83.774Zm-1.025.1a.283.283,0,1,1-.308.256A.332.332,0,0,1,34.836,83.876Zm-.922.206a.283.283,0,1,1-.307.256A.332.332,0,0,1,33.914,84.082Z" fill="#fff" fill-rule="evenodd"/>
    <path id="Path_221" data-name="Path 221" d="M35.81,84.85a4.417,4.417,0,0,1,2.2.358,5.733,5.733,0,0,1-2.1.205,6.166,6.166,0,0,1-2.152-.205c0-.153.923-.358,2.05-.358Zm-14.5-6.814a2.114,2.114,0,0,0,1.384.051,2.888,2.888,0,0,1,2.1-.256v6.661A3.089,3.089,0,0,0,23,84.543a3.911,3.911,0,0,1-1.691.1v-6.61h0Zm2.152,4.919c0-.256.153-.308.256-.308s.256.051.256.308-.153.307-.256.307S23.462,83.21,23.462,82.955Zm-.153,0a.413.413,0,1,0,.41-.461A.408.408,0,0,0,23.309,82.955Zm-.359.2-.358-.615h-.2v.871h.2V82.8l.307.615h.2v-.871H22.95v.615Zm-.922.359h.153V82.6h-.153Zm2.254-2.972h-.256l-.154.717-.154-.717H23.41v.922h.2V80.7l.154.769h.2l.154-.769v.769h.153v-.923h0Zm-1.64.513c0-.205.1-.307.2-.307a.287.287,0,0,1,.256.307c0,.256-.154.358-.256.358S22.642,81.315,22.642,81.059Zm-.2,0c0,.461.308.512.41.512.154,0,.461-.051.461-.512a.421.421,0,0,0-.461-.461A.407.407,0,0,0,22.438,81.059Zm-.667-.154h.154c.1,0,.2,0,.2.256,0,.154-.052.308-.2.308h-.154V80.9Zm-.2.717h.41c.308,0,.359-.307.359-.461s-.051-.409-.359-.409h-.41v.87Zm1.691-2.152-.359-.615h-.2v.871h.2v-.615l.359.615h.153v-.871h-.153Zm-.973.308h.154v-.871h-.154Zm-1.23-1.742-.615.512v6.66l.615-.614V78.036Z" fill="#fff" fill-rule="evenodd"/>
    <path id="Path_222" data-name="Path 222" d="M20.644,85.311l.615-.512a5.881,5.881,0,0,0,1.9-.1c.717-.154,1.076-.256,1.588,0a.643.643,0,0,0-.461.615H20.644Zm8.454,0-.615-.512a5.883,5.883,0,0,1-1.9-.1c-.819-.154-1.076-.256-1.537,0a.555.555,0,0,1,.358.615Zm-.461-7.327.614.564v6.558l-.614-.564Z" fill="#fff" fill-rule="evenodd"/>
    <path id="Path_223" data-name="Path 223" d="M28.432,78.036A2.236,2.236,0,0,1,27,78.087c-.82-.308-1.486-.512-1.947-.256v6.661a2.744,2.744,0,0,1,1.691.051,3.911,3.911,0,0,0,1.691.1v-6.61Zm-2.664,5.38h.358c.307,0,.358-.308.358-.513,0-.153-.051-.41-.358-.41h-.358v.923Zm.153-.769h.2c.051,0,.2.051.2.308,0,.153-.052.307-.2.307h-.2Zm.82.41c0,.461.307.512.41.512.154,0,.461-.051.461-.512a.421.421,0,0,0-.461-.461A.407.407,0,0,0,26.741,83.057Zm.2,0c0-.205.1-.307.2-.307a.287.287,0,0,1,.256.307c0,.256-.154.359-.256.359S26.946,83.313,26.946,83.057Zm-.717-1.794h.41V81.11h-.41v-.205h.461v-.153h-.615v.871h.154Zm.666.41h.2v-.922h-.2Zm-.82-2.51a.341.341,0,0,0-.359-.307c-.256,0-.41.154-.41.461s.154.461.41.461c.2,0,.359-.1.359-.308h-.154c-.051.1-.1.154-.2.154-.2,0-.2-.1-.2-.307,0-.256.1-.308.2-.308.154,0,.154.1.2.153h.154Zm.154.256c0,.461.308.512.461.512.1,0,.41-.051.41-.512a.409.409,0,0,0-.41-.461A.421.421,0,0,0,26.229,79.419Zm.2,0a.288.288,0,0,1,.256-.307.3.3,0,0,1,.2.307c0,.256-.154.359-.2.359C26.587,79.778,26.434,79.675,26.434,79.419Zm1.332.205-.308-.615h-.2v.871h.154v-.615l.359.615h.2v-.871h-.2v.615ZM24.9,84.8c-.256.256-.359.256-.308.512h.563C25.2,85.055,25.153,84.953,24.9,84.8Z" fill="#fff" fill-rule="evenodd"/>
    <path id="Path_224" data-name="Path 224" d="M13.625,97.146a6.407,6.407,0,0,1,.359-.871c-.1-.154-.308-.358-.41-.358.051-.154.358-.359.308-.513-.1-.154-.2-.154-.513-.307a.767.767,0,0,1,.461-.358c.2-.052.2-.256.461-.41a2.986,2.986,0,0,1,.973-.205,1.515,1.515,0,0,1,1.384,2c.769,1.537,3.484-.512,4.458-.512-.2.308-.41.666-.615,1.025.256.152.615,0,.871,0a2.757,2.757,0,0,1-1.229,1.537c.461,1.383,2.049.871,3.484.717-.153.461-.769.512-1.024.871a7.547,7.547,0,0,1,1.383,1.9,15.109,15.109,0,0,0-2.459-1.023,5.606,5.606,0,0,0-3.433,0,1.634,1.634,0,0,0,.769.666c-.461.871-1.332.357-1.845.205a1.6,1.6,0,0,1-1.486.152.507.507,0,0,1,.256-.408c.2-.256-.513-.309-.666-.615,0-.359.308,0,.513-.359-.463-.873-2.256-1.078-2-3.127Zm1.229-2.459a.154.154,0,1,1-.154.154A.136.136,0,0,1,14.854,94.687ZM25.973,97.4a5.919,5.919,0,0,1,.307-.871c-.1-.153-.256-.357-.41-.357.1-.154.359-.359.308-.513s-.154-.154-.461-.307a.773.773,0,0,1,.461-.359c.2,0,.2-.256.461-.41a2.066,2.066,0,0,1,.974-.153A1.448,1.448,0,0,1,29,96.379c.769,1.538,3.484-.563,4.458-.563l-.615,1.076c.256.154.615,0,.871,0a2.78,2.78,0,0,1-1.229,1.537c.41,1.383,2.049.871,3.483.717-.153.461-.769.512-1.024.871a9.036,9.036,0,0,1,1.383,1.9,15,15,0,0,0-2.459-1.025,5.769,5.769,0,0,0-3.484,0,2.059,2.059,0,0,0,.82.666c-.461.871-1.332.359-1.845.205a1.6,1.6,0,0,1-1.486.154.584.584,0,0,1,.256-.41c.2-.256-.512-.309-.717-.615,0-.359.359,0,.564-.359-.462-.873-2.256-1.078-2-3.127Zm1.178-2.459c.1,0,.2.051.2.154s-.1.153-.2.153a.154.154,0,0,1,0-.307Zm-7.122,11.17c.1-.205.256-.719.359-.871-.1-.154-.256-.359-.41-.359.051-.154.358-.41.308-.562-.051-.1-.2-.1-.461-.258a.619.619,0,0,1,.461-.357c.154-.051.154-.256.41-.41a3.288,3.288,0,0,1,.973-.205,1.54,1.54,0,0,1,1.435,2c.769,1.537,3.484-.564,4.406-.564-.154.359-.41.719-.563,1.076.2.154.563,0,.871,0a3.527,3.527,0,0,1-1.23,1.537c.41,1.385,2.049.871,3.484.719-.2.461-.768.512-1.076.871a6.457,6.457,0,0,1,1.383,1.895,13.534,13.534,0,0,0-2.408-1.076,6.7,6.7,0,0,0-3.484,0,1.722,1.722,0,0,0,.769.719c-.41.871-1.281.357-1.793.152a1.5,1.5,0,0,1-1.486.205.512.512,0,0,1,.256-.41c.154-.256-.512-.307-.717-.666,0-.307.359,0,.513-.307-.411-.873-2.2-1.078-2-3.127Zm1.23-2.511c.1,0,.153.1.153.205a.162.162,0,0,1-.153.154.181.181,0,0,1,0-.359Z" fill="#cf4037" fill-rule="evenodd"/>
    <path id="Path_225" data-name="Path 225" d="M16.648,81.366c-.051,0-.154-.051,0-.1a.818.818,0,0,1,.666.359c.1-.051.41-.512.717-.359,0,0-1.025,2.255-1.127,2.408a21.27,21.27,0,0,0-2.767-.358,11.2,11.2,0,0,0-2.767.358c-.1-.205-1.127-2.459-1.127-2.459.307-.154.666.308.768.358a.693.693,0,0,1,.564-.358c.256.051.1.1.051.153-1.229.974.564,2.152.974.974,1.64.205,1.179-1.076.769-1.281-.308-.051-.1-.1,0-.1.154-.1.359-.1.359.051,0-.717.051-1.179.41-1.383.41.256.461.666.41,1.383.051-.154.2-.051.358-.051.051.051.308.051.051.154-.41.153-.82,1.537.769,1.229C16.084,83.518,18.031,82.237,16.648,81.366ZM15.572,82.7l.512.563-.922-.154.41-.409Zm-1.435-.615.563,1.024H13.573ZM12.7,82.7l-.461.563.922-.154L12.7,82.7Z" fill="#fff" fill-rule="evenodd"/>
    <path id="Path_226" data-name="Path 226" d="M12.088,84.953c-.2-.308-.41-.871-.512-.974a6.336,6.336,0,0,1,2.664-.41,6.565,6.565,0,0,1,2.511.41s-.2.615-.359,1.025a7.133,7.133,0,0,0-2.254-.359A6.159,6.159,0,0,0,12.088,84.953Zm4.047-.871a.283.283,0,1,1-.256.256A.329.329,0,0,1,16.135,84.082Zm-.973-.206a.283.283,0,1,1-.256.256A.331.331,0,0,1,15.162,83.876Zm-.974-.1a.308.308,0,1,1-.307.308A.33.33,0,0,1,14.188,83.774Zm-1.024.1a.283.283,0,1,1-.307.256A.332.332,0,0,1,13.164,83.876Zm-.922.206a.283.283,0,1,1-.308.256A.332.332,0,0,1,12.242,84.082Z" fill="#fff" fill-rule="evenodd"/>
    <path id="Path_227" data-name="Path 227" d="M14.137,84.85a4.417,4.417,0,0,1,2.2.358,5.733,5.733,0,0,1-2.1.205,6.166,6.166,0,0,1-2.152-.205C12.088,85.055,13.01,84.85,14.137,84.85Z" fill="#fff" fill-rule="evenodd"/>
    <path id="Path_228" data-name="Path 228" d="M151.91,79.624a2.514,2.514,0,0,1,2.51,2.51,2.512,2.512,0,1,1-5.022,0,2.515,2.515,0,0,1,2.512-2.51Zm23.824,26.694c-.1,1.127-.615,1.844-2.664,2.408-1.641.512-1.436,1.383.205,1.484a28.94,28.94,0,0,1,9.836-.1c1.59-.051,1.332-1.025.359-1.486-2.357-.922-2.715-.922-3.176-3.279l-.205-23.363c0-1.332.512-2.92-.924-2.562-2.664,1.076-2.869,1.127-5.328,2-1.281.513-.768,1.178.154,1.486a2.189,2.189,0,0,1,1.486,2.255l.257,21.161Zm-13.679-.1c-.154,1.076-.666,1.793-2.717,2.408-1.639.514-1.434,1.383.205,1.436a31.782,31.782,0,0,1,9.838-.1c1.588,0,1.332-1.023.359-1.486-2.357-.922-2.717-.922-3.178-3.227l-.205-23.415c0-1.332.514-2.92-.922-2.562-2.664,1.076-2.869,1.179-5.328,2-1.23.564-.77,1.179.154,1.486A2.161,2.161,0,0,1,161.745,85ZM149.5,96.992c-.1-1.178-.256-2.1-1.588-2.51-.975-.1-1.436-.974-.053-1.486a11.675,11.675,0,0,0,5.277-2.818c.666-.307,1.436-.051,1.076,1.127-.154.922-.1,1.332-.205,2.306l.051,12.193c.1,2,1.641,2.307,2.613,2.717,1.025.41,1.076,1.537-.051,1.588-4.355-.615-5.277-.666-9.479.154-1.383.051-1.691-1.025.051-1.641,1.691-.615,2.307-.922,2.357-2.357l-.049-9.273Zm-38.273-2.253c.975-10.4,7.635-14.705,17.01-15.474,9.889.052,11.324.717,11.17,6.2.051,2-1.23,2.459-2.152.205a7.7,7.7,0,0,0-4.457-4.2c-8.557-1.947-14.859,3.536-15.217,12.86-.615,13.117,14.09,16.958,17.113,12.041.666-1.281.666-4.662.562-7.48-.512-1.844-2.3-1.691-4-1.742-1.844.154-2.51-1.947-.051-1.947a112.818,112.818,0,0,0,13.014-.308c1.742.051,1.9,1.639-.256,1.895-.922.205-2.922.154-3.178,1.691-.205,7.992,1.641,8.762-4.355,10.965-7.684,1.793-15.984.973-20.646-3.535a15.231,15.231,0,0,1-4.561-11.17ZM91.4,100.066c.871-8.607,8.045-10.657,11.732-10.657,4.355.1,5.738,1.537,5.791,3.023a1.669,1.669,0,0,1-2.1,1.9c-2.408-.615-1.947-3.177-5.174-3.331-3.588.512-5.791,4.56-5.176,9.428s5.328,8.453,11.066,5.482c1.385-.309,1.486.871.359,1.639-10.5,6.509-16.9-2.714-16.5-7.48Zm-32.534-14.5c-.256-2.972-1.178-2.049-3.433-2.972-1.845-.358-2-1.69-.154-1.742a26.439,26.439,0,0,0,7.583-.154,2.565,2.565,0,0,1,2.254,1.9c2.254,4.816,5.584,12.041,7.839,16.856.41.871.615,1.025,1.127-.051l6.712-17.164c.718-1.435,1.537-1.793,3.894-1.588a47.631,47.631,0,0,0,7.02-.256c1.69.051,1.588,1.383-.1,1.844-2.613,0-3.945.922-4.355,2.869l.358,19.675c.41,2.92,1.947,3.021,4.663,3.688,1.281.564.973,1.436-.051,1.742a50.889,50.889,0,0,0-13.373-.1c-1.64.154-1.742-1.23,0-1.641,2.1-.461,2.665-.818,3.125-1.895l-.461-19.009c-.052-.717-.513-.717-.82.154L72.7,107.7c-.717,1.742-1.076,1.742-1.9.41l-9.479-20.5c-.256-.717-.615-.513-.666-.051l.1,18.087c.257,2.1,1.691,2.2,4.663,3.125.82.307.871.973.205,1.434a43.18,43.18,0,0,0-12.091.205c-.82,0-1.229-1.229.1-1.434,2.818-.82,3.587-.82,4.048-2.459l1.18-20.954Z" fill="#cf4037" fill-rule="evenodd"/>
  </g>
</svg>
