<svg id="Group-14" xmlns="http://www.w3.org/2000/svg" width="243.365" height="252.721" viewBox="0 0 243.365 252.721">
  <path id="Fill-305" d="M0,243.365H243.365V0H0Z" fill="none" fill-rule="evenodd"/>
  <path id="Fill-307" d="M254.424,79.224a18.755,18.755,0,0,0,3.854,9.057c3.468,4.432,10.406,9.443,5.974,13.875-4.432,4.625-12.911-.385-12.911-11.563a24.951,24.951,0,0,1,3.083-11.37" transform="translate(-129.006 -40.663)" fill="#ffc947" fill-rule="evenodd"/>
  <path id="Fill-308" d="M365.688,188.162a12.64,12.64,0,0,1,.963,7.13c-.578,4.047-2.89,9.635,1.542,10.791s7.708-5.01,3.662-11.948a16.369,16.369,0,0,0-6.167-5.974" transform="translate(-187.617 -96.578)" fill="#ffc947" fill-rule="evenodd"/>
  <path id="Fill-309" d="M172.77,136.968a16.132,16.132,0,0,1-.193,8.479c-1.349,4.818-5.2,10.792-.193,12.911s10.021-4.432,6.552-13.1a21.709,21.709,0,0,0-6.166-8.286" transform="translate(-87.198 -70.302)" fill="#ffc947" fill-rule="evenodd"/>
  <path id="Fill-310" d="M379.5,97.74l2,3.276-12.72,7.913-2.042-3.276Z" transform="translate(-188.234 -50.167)" fill="#fff" fill-rule="evenodd"/>
  <path id="Stroke-311" d="M379.5,97.74l2,3.276-12.72,7.913-2.042-3.276Z" transform="translate(-188.234 -50.167)" fill="none" stroke="#fff" stroke-width="0.2" fill-rule="evenodd"/>
  <path id="Fill-312" d="M374.464,132.225l-2.552,1.574-.893-1.447,2.552-1.574Z" transform="translate(-190.433 -67.124)" fill="#fff" fill-rule="evenodd"/>
  <path id="Stroke-313" d="M374.464,132.225l-2.552,1.574-.893-1.447,2.552-1.574Z" transform="translate(-190.433 -67.124)" fill="none" stroke="#fff" stroke-width="0.2" fill-rule="evenodd"/>
  <path id="Fill-314" d="M326.9,108.054l7.87,12.635L303.673,140,300.4,124.517Z" transform="translate(-154.185 -55.461)" fill="#fff" fill-rule="evenodd"/>
  <path id="Stroke-315" d="M326.9,108.054l7.87,12.635L303.673,140,300.4,124.517Z" transform="translate(-154.185 -55.461)" fill="none" stroke="#fff" stroke-width="0.2" fill-rule="evenodd"/>
  <path id="Fill-316" d="M366.152,114l2.042,3.276-.552.34-2.042-3.276Z" transform="translate(-187.651 -58.511)" fill="#fff" fill-rule="evenodd"/>
  <path id="Stroke-317" d="M366.152,114l2.042,3.276-.552.34-2.042-3.276Z" transform="translate(-187.651 -58.511)" fill="none" stroke="#fff" stroke-width="0.2" fill-rule="evenodd"/>
  <path id="Fill-318" d="M362.719,117.279l-7.87-12.635,2.552-1.574-.893-1.447.34-.213,3.786,6.126-.553.34,2.042,3.276.553-.34,3.829,6.126-.34.213-.893-1.447Z" transform="translate(-182.133 -52.051)" fill="#fff" fill-rule="evenodd"/>
  <path id="Stroke-319" d="M362.719,117.279l-7.87-12.635,2.552-1.574-.893-1.447.34-.213,3.786,6.126-.553.34,2.042,3.276.553-.34,3.829,6.126-.34.213-.893-1.447Z" transform="translate(-182.133 -52.051)" fill="none" stroke="#fff" stroke-width="0.2" fill-rule="evenodd"/>
  <path id="Fill-320" d="M356.459,103.294l-2.552,1.574-.893-1.447,2.552-1.574Z" transform="translate(-181.192 -52.275)" fill="#fff" fill-rule="evenodd"/>
  <path id="Stroke-321" d="M356.459,103.294l-2.552,1.574-.893-1.447,2.552-1.574Z" transform="translate(-181.192 -52.275)" fill="none" stroke="#fff" stroke-width="0.2" fill-rule="evenodd"/>
  <path id="Fill-322" d="M341.4,135.2l-35.48,22.036-1.064-1.744,1.531-.34-.425-1.957,31.1-19.313.893,1.446,2.552-1.574Z" transform="translate(-156.473 -68.65)" fill="#fff" fill-rule="evenodd"/>
  <path id="Stroke-323" d="M341.4,135.2l-35.48,22.036-1.064-1.744,1.531-.34-.425-1.957,31.1-19.313.893,1.446,2.552-1.574Z" transform="translate(-156.473 -68.65)" fill="none" stroke="#fff" stroke-width="0.2" fill-rule="evenodd"/>
  <path id="Fill-324" d="M305.2,173.693l.425,1.957-1.531.34-.723-1.149Z" transform="translate(-155.71 -89.151)" fill="#fff" fill-rule="evenodd"/>
  <path id="Stroke-325" d="M305.2,173.693l.425,1.957-1.531.34-.723-1.149Z" transform="translate(-155.71 -89.151)" fill="none" stroke="#fff" stroke-width="0.2" fill-rule="evenodd"/>
  <path id="Fill-326" d="M299.3,177.754l-.128-.638a15.64,15.64,0,0,0,2.042-1.064l.723,1.149Z" transform="translate(-153.557 -90.363)" fill="#fff" fill-rule="evenodd"/>
  <path id="Stroke-327" d="M299.3,177.754l-.128-.638a15.64,15.64,0,0,0,2.042-1.064l.723,1.149Z" transform="translate(-153.557 -90.363)" fill="none" stroke="#fff" stroke-width="0.2" fill-rule="evenodd"/>
  <path id="Fill-328" d="M295.764,159.576l-3.233-15.315,3.829-2.382,3.275,15.485-1.829,1.149a15.638,15.638,0,0,1-2.042,1.064" transform="translate(-150.147 -72.822)" fill="#fff" fill-rule="evenodd"/>
  <path id="Stroke-329" d="M295.764,159.576l-3.233-15.315,3.829-2.382,3.275,15.485-1.829,1.149A15.638,15.638,0,0,1,295.764,159.576Z" transform="translate(-150.147 -72.822)" fill="none" stroke="#fff" stroke-width="0.2" fill-rule="evenodd"/>
  <path id="Fill-330" d="M295.827,141l.085.425-3.829,2.383-.425-1.915Z" transform="translate(-149.699 -72.373)" fill="#fff" fill-rule="evenodd"/>
  <path id="Stroke-331" d="M295.827,141l.085.425-3.829,2.383-.425-1.915Z" transform="translate(-149.699 -72.373)" fill="none" stroke="#fff" stroke-width="0.2" fill-rule="evenodd"/>
  <path id="Fill-332" d="M272.437,175.354c1.872,3.021,6.806,3.488,11.529,1.4l.127.638,2.638-.553,1.064,1.744a18.172,18.172,0,0,1-9.487,2.893c-3.744,0-6.977-1.447-8.764-4.3Z" transform="translate(-138.349 -90.004)" fill="#fff" fill-rule="evenodd"/>
  <path id="Stroke-333" d="M272.437,175.354c1.872,3.021,6.806,3.488,11.529,1.4l.127.638,2.638-.553,1.064,1.744a18.172,18.172,0,0,1-9.487,2.893c-3.744,0-6.977-1.447-8.764-4.3Z" transform="translate(-138.349 -90.004)" fill="none" stroke="#fff" stroke-width="0.2" fill-rule="evenodd"/>
  <path id="Fill-334" d="M319.9,100.323l-2.552,1.574.893,1.447-26.5,16.463-.085-.425-4.169.894.425,1.914-2.6,1.616-1.786-2.893,35.479-22.037Z" transform="translate(-145.527 -50.75)" fill="#fff" fill-rule="evenodd"/>
  <path id="Stroke-335" d="M319.9,100.323l-2.552,1.574.893,1.447-26.5,16.463-.085-.425-4.169.894.425,1.914-2.6,1.616-1.786-2.893,35.479-22.037Z" transform="translate(-145.527 -50.75)" fill="none" stroke="#fff" stroke-width="0.2" fill-rule="evenodd"/>
  <path id="Fill-336" d="M268.2,161.167c-1.574-2.552-1.7-5.786-.3-9.1a18.264,18.264,0,0,1,7.1-7.913l1.787,2.893a14.4,14.4,0,0,0-5.743,6.382,6.274,6.274,0,0,0,.042,5.913Z" transform="translate(-137.009 -73.988)" fill="#fff" fill-rule="evenodd"/>
  <path id="Stroke-337" d="M268.2,161.167c-1.574-2.552-1.7-5.786-.3-9.1a18.264,18.264,0,0,1,7.1-7.913l1.787,2.893a14.4,14.4,0,0,0-5.743,6.382,6.274,6.274,0,0,0,.042,5.913Z" transform="translate(-137.009 -73.988)" fill="none" stroke="#fff" stroke-width="0.2" fill-rule="evenodd"/>
  <path id="Fill-338" d="M128.431,289.337q-2.047,0-4.086-.079c-7.941-.306-14.092-1.523-19.355-3.831-6.884-3.018-12.071-7.96-14.6-13.913l3.913-1.666c2.08,4.879,6.6,9.138,12.4,11.682,4.761,2.086,10.421,3.19,17.814,3.477,3.288.131,6.612.1,9.871-.1l.254,4.246c-2.054.122-4.129.183-6.2.183" transform="translate(-46.392 -138.505)" fill="#fff" fill-rule="evenodd"/>
  <path id="Fill-339" d="M263.322,261.151c-4.86.549-8.614,3.71-12.247,6.767-1.138.955-2.275,1.915-3.44,2.775-5.218,3.864-11.867,6.223-19.761,7.021-7.174.71-14.547.1-21.686-.5L167.777,274c-2.1-.175-4.259-.311-6.429-.386a11.761,11.761,0,0,1,.968,4.271c1.712.086,3.426.215,5.109.353l38.412,3.215c4.939.416,9.994.84,15.078.84a73.359,73.359,0,0,0,7.387-.349c8.668-.873,16.024-3.506,21.865-7.827,1.236-.914,2.442-1.927,3.65-2.946,3.292-2.77,6.4-5.388,9.985-5.791Z" transform="translate(-82.815 -134.041)" fill="#fff" fill-rule="evenodd"/>
  <path id="Fill-340" d="M250.326,227.874A109.3,109.3,0,0,0,237.2,191.991a180.917,180.917,0,0,0-14.178-20.13,7.4,7.4,0,0,1-.875-1.225,37.45,37.45,0,0,1-.7,13.3c-.525-.525-8.577-10.5-8.577-10.5s2.626,14.878.7,19.429c-7.7-12.778-15.578-25.381-24.855-37.283a70.59,70.59,0,0,0-10.5-11.2,9.7,9.7,0,0,1-1.4-1.05c-1.926,29.581-8.4,51.461-10.678,57.938-2.275-2.975-5.426-13.653-5.426-13.653s-5.426,7.176-5.951,8.227c-2.8-2.1-4.9-7.527-5.426-12.253-.175,0-5.951,10.327-9.8,23.105-3.675,11.728-5.776,23.631-4.9,35.883a55.683,55.683,0,0,0,6.477,22.93,32.183,32.183,0,0,0,15.928,14.528,48.6,48.6,0,0,0,17.854,3.676c9.977.175,39.909-4.2,55.838-11.028,12.953-5.426,19.429-16.278,20.48-30.457a67.3,67.3,0,0,0-.876-14.353" transform="translate(-68.998 -73.567)" fill="#fb8c00" fill-rule="evenodd"/>
  <path id="Fill-341" d="M264.6,286.212a73.365,73.365,0,0,0-8.811-24.083,121.429,121.429,0,0,0-9.515-13.509,4.956,4.956,0,0,1-.587-.823,25.141,25.141,0,0,1-.47,8.928c-.352-.352-5.756-7.049-5.756-7.049s1.762,9.986.47,13.04a250.25,250.25,0,0,0-16.682-25.023,47.353,47.353,0,0,0-7.048-7.519,6.465,6.465,0,0,1-.94-.7c-1.292,19.853-5.639,34.538-7.166,38.884-1.527-2-3.642-9.163-3.642-9.163s-3.642,4.816-3.994,5.521c-1.88-1.41-3.289-5.052-3.642-8.223A74.349,74.349,0,0,0,190.242,272a64.632,64.632,0,0,0-3.289,24.082,37.367,37.367,0,0,0,4.346,15.389,21.6,21.6,0,0,0,10.69,9.751,32.625,32.625,0,0,0,11.983,2.467c6.7.117,26.785-2.82,37.475-7.4,8.693-3.642,13.04-10.926,13.745-20.441a45.162,45.162,0,0,0-.587-9.633" transform="translate(-95.889 -117.781)" fill="#ffc947" fill-rule="evenodd"/>
  <g id="Group-345" transform="translate(43.2 85.258)">
    <path id="Fill-343" d="M90.453-1.834,82.08,3.82c-4.721,3.188-9.605,6.485-15.093,7.775-6.631,1.552-13.381.1-20.538-1.435a92.967,92.967,0,0,0-12.578-2.1A25.376,25.376,0,0,0,22.086,9.543C16.064,12.025,12.057,17.31,8.149,22.966,5.173,27.278,1.1,33.181.776,39.876A18.209,18.209,0,0,0,6.961,54.371a18.149,18.149,0,0,0,9.7,4.232,12.189,12.189,0,0,1,.275-4.291,14,14,0,0,1-7.18-3.15A14.115,14.115,0,0,1,5.025,40.08c.241-5.068,3.143-9.655,6.627-14.7,3.664-5.307,7.1-9.865,12.054-11.906a21.5,21.5,0,0,1,9.85-1.18,90.087,90.087,0,0,1,12,2.021c7.306,1.568,14.856,3.191,22.4,1.418,6.251-1.468,11.7-5.145,16.5-8.392l8.374-5.652Z" transform="translate(-0.755 1.834)" fill="#fff" fill-rule="evenodd"/>
  </g>
  <path id="Fill-346" d="M284.49,385.427a76.42,76.42,0,0,1,3.093-39.594c7.366-20.412,22.682-34.781,37.494-48.675,4.192-3.934,8.526-8,12.573-12.112,5.6-5.685,7.854-10.552,6.9-14.877-.884-4.017-4.52-6.46-7.729-7.1-3.808-.752-7.854.241-11.765,1.2l-1.014-4.129c4.159-1.026,8.874-2.189,13.606-1.242,4.57.906,9.76,4.459,11.057,10.355,1.286,5.841-1.34,11.983-8.024,18.774-4.107,4.173-8.473,8.269-12.7,12.231-14.445,13.554-29.382,27.567-36.4,47.02a72.092,72.092,0,0,0-2.914,37.355Z" transform="translate(-145.352 -132.706)" fill="#fff" fill-rule="evenodd"/>
</svg>
