<svg xmlns="http://www.w3.org/2000/svg" width="248.307" height="51.852" viewBox="0 0 248.307 51.852">
  <g id="Group_348" data-name="Group 348" transform="translate(-708.726 -2562.93)">
    <path id="Path_214" data-name="Path 214" d="M129.119,36.547c0-9.594,7.739-16.7,17.2-16.7,9.374,0,17.113,7.1,17.113,16.7,0,9.62-7.739,16.736-17.113,16.736-9.464-.012-17.2-7.117-17.2-16.736ZM70.686,8.44v1.945a2.232,2.232,0,0,1-.3,1.245L52.069,42.822a.079.079,0,0,0,.066.13H71.646v9.283H36.511V50.42a2.8,2.8,0,0,1,.545-1.775L55.169,17.878c.038-.064.012-.13-.066-.13H37.068V8.44ZM183.569,52.223h-9.384l-10.2-31.57h10.087l2.918,9.556c.971,3.163,2.6,9.1,2.6,9.1a.074.074,0,0,0,.142,0s1.685-6.056,2.647-9.1l3.06-9.556h7.442l3.008,9.556c1.011,3.267,2.593,9.1,2.593,9.1.024.078.116.078.156,0,0,0,1.634-5.9,2.6-9.1l2.918-9.556h9.372l-10.138,31.57h-9.217l-2.515-7.934C190.7,41.177,189,35.135,189,35.135a.072.072,0,0,0-.142,0s-1.7,5.924-2.723,9.1Zm-95.211,0h-10.2V20.653h10.2ZM96.1,3.966h10.2V52.223H96.1Zm17.762,0h10.2V52.223h-10.2Zm39.79,32.581c0-4.693-3.359-7.9-7.326-7.9-4.057,0-7.416,3.2-7.416,7.9,0,4.733,3.359,7.894,7.416,7.894C150.29,44.444,153.648,41.281,153.648,36.547Zm64.965-23.466a3.812,3.812,0,1,0,3.812,3.812A3.818,3.818,0,0,0,218.613,13.081Zm0,6.885a3.073,3.073,0,1,1,3.074-3.074A3.073,3.073,0,0,1,218.613,19.967Zm.221-5.355a1.556,1.556,0,0,1,.582,2.982l.87,1.426h-.83l-.806-1.322h-.712v1.322h-.726V14.611Zm-.04.648h-.856v1.789h.856a.9.9,0,0,0,0-1.789ZM83.25,4.836a5.791,5.791,0,0,1,5.808,5.73,5.809,5.809,0,0,1-11.616,0A5.789,5.789,0,0,1,83.25,4.836Z" transform="translate(734.608 2561.498)" fill="#006aff"/>
    <path id="Path_215" data-name="Path 215" d="M12.573,45.5a.385.385,0,0,1-.509-.078l-4.347-5.18c-.116-.144-.13-.222.026-.443,3.36-4.92,10.218-12.587,14.591-15.827.078-.052.052-.118-.04-.078A192.4,192.4,0,0,0,0,33.66V51.254H46.609V34.31C40.257,35.39,21.229,41.052,12.573,45.5ZM31.523,13.85a.43.43,0,0,1,.481.182c.807.9,3.386,4.047,4.087,4.906a.29.29,0,0,1-.064.416A92.985,92.985,0,0,0,21.8,33.281c-.064.092-.012.092.04.078a161.823,161.823,0,0,1,24.781-7.367V18.458L23.338.04.014,18.444v8.238C7.237,22.388,23.948,15.737,31.523,13.85Z" transform="translate(708.726 2562.89)" fill="#006aff"/>
  </g>
</svg>
