<svg id="en_get" xmlns="http://www.w3.org/2000/svg" xmlns:xlink="http://www.w3.org/1999/xlink" width="155" height="60" viewBox="0 0 155 60">
  <defs>
    <linearGradient id="linear-gradient" x1="0.915" y1="6.617" x2="-0.384" y2="5.947" gradientUnits="objectBoundingBox">
      <stop offset="0" stop-color="#00a0ff"/>
      <stop offset="0.01" stop-color="#00a1ff"/>
      <stop offset="0.26" stop-color="#00beff"/>
      <stop offset="0.51" stop-color="#00d2ff"/>
      <stop offset="0.76" stop-color="#00dfff"/>
      <stop offset="1" stop-color="#00e3ff"/>
    </linearGradient>
    <linearGradient id="linear-gradient-2" x1="1.077" y1="17.089" x2="-1.306" y2="17.089" gradientUnits="objectBoundingBox">
      <stop offset="0" stop-color="#ffe000"/>
      <stop offset="0.41" stop-color="#ffbd00"/>
      <stop offset="0.78" stop-color="orange"/>
      <stop offset="1" stop-color="#ff9c00"/>
    </linearGradient>
    <linearGradient id="linear-gradient-3" x1="0.862" y1="10.858" x2="-0.501" y2="9.09" gradientUnits="objectBoundingBox">
      <stop offset="0" stop-color="#ff3a44"/>
      <stop offset="1" stop-color="#c31162"/>
    </linearGradient>
    <linearGradient id="linear-gradient-4" x1="-0.188" y1="13.578" x2="0.421" y2="12.788" gradientUnits="objectBoundingBox">
      <stop offset="0" stop-color="#32a071"/>
      <stop offset="0.07" stop-color="#2da771"/>
      <stop offset="0.48" stop-color="#15cf74"/>
      <stop offset="0.8" stop-color="#06e775"/>
      <stop offset="1" stop-color="#00f076"/>
    </linearGradient>
  </defs>
  <path id="Path_257" data-name="Path 257" d="M0,0H155V60H0Z" fill="none"/>
  <rect id="Rectangle_1881" data-name="Rectangle 1881" width="135" height="40" rx="5" transform="translate(10 10)"/>
  <path id="Path_258" data-name="Path 258" d="M140,10.8a4.2,4.2,0,0,1,4.2,4.2V45a4.2,4.2,0,0,1-4.2,4.2H15A4.2,4.2,0,0,1,10.8,45V15A4.2,4.2,0,0,1,15,10.8H140m0-.8H15a5,5,0,0,0-5,5V45a5,5,0,0,0,5,5H140a5,5,0,0,0,5-5V15A5,5,0,0,0,140,10Z" fill="#a6a6a6"/>
  <path id="Path_259" data-name="Path 259" d="M57.42,20.24a2.71,2.71,0,0,1-.75,2,2.91,2.91,0,0,1-2.2.89,3.15,3.15,0,0,1-2.21-5.37,3,3,0,0,1,2.21-.9,3.1,3.1,0,0,1,1.23.25,2.47,2.47,0,0,1,.94.67l-.53.53a2,2,0,0,0-1.64-.71A2.32,2.32,0,0,0,52.14,20a2.36,2.36,0,0,0,4,1.73,1.89,1.89,0,0,0,.5-1.22H54.47v-.72h2.91a2.54,2.54,0,0,1,.04.45ZM62,17.74H59.3v1.9h2.46v.72H59.3v1.9H62V23H58.5V17H62ZM65.28,23h-.77V17.74H62.83V17H67v.74H65.28Zm4.66,0V17h.77v6Zm4.19,0h-.77V17.74H71.68V17H75.8v.74H74.13Zm9.48-.78a3.12,3.12,0,0,1-4.4,0,3.24,3.24,0,0,1,0-4.45,3.1,3.1,0,0,1,4.4,0,3.23,3.23,0,0,1,0,4.45Zm-3.83-.5a2.31,2.31,0,0,0,3.26,0,2.56,2.56,0,0,0,0-3.44,2.31,2.31,0,0,0-3.26,0A2.56,2.56,0,0,0,79.78,21.72ZM85.58,23V17h.94l2.92,4.67V17h.77v6h-.8l-3.05-4.89V23Z" fill="#fff" stroke="#fff" stroke-miterlimit="10" stroke-width="0.2"/>
  <path id="Path_260" data-name="Path 260" d="M78.14,31.75A4.25,4.25,0,1,0,82.41,36a4.19,4.19,0,0,0-4.27-4.25Zm0,6.83A2.58,2.58,0,1,1,80.54,36a2.46,2.46,0,0,1-2.4,2.58Zm-9.31-6.83A4.25,4.25,0,1,0,73.09,36a4.19,4.19,0,0,0-4.27-4.25Zm0,6.83A2.58,2.58,0,1,1,71.22,36a2.46,2.46,0,0,1-2.4,2.58ZM57.74,33.06v1.8h4.32a3.77,3.77,0,0,1-1,2.27,4.42,4.42,0,0,1-3.33,1.32,4.8,4.8,0,1,1,0-9.6A4.6,4.6,0,0,1,61,30.14l1.27-1.27A6.29,6.29,0,0,0,57.74,27a6.61,6.61,0,1,0,0,13.21,5.838,5.838,0,0,0,6.17-6.07,5.869,5.869,0,0,0-.1-1.13Zm45.31,1.4A3.929,3.929,0,0,0,95.41,36a4.16,4.16,0,0,0,4.22,4.25,4.23,4.23,0,0,0,3.54-1.88l-1.45-1a2.43,2.43,0,0,1-2.09,1.18,2.16,2.16,0,0,1-2.06-1.29l5.69-2.35Zm-5.8,1.42a2.33,2.33,0,0,1,2.22-2.48,1.65,1.65,0,0,1,1.58.9ZM92.63,40H94.5V27.5H92.63Zm-3.06-7.3H89.5a3,3,0,0,0-2.24-1,4.26,4.26,0,0,0,0,8.51,2.9,2.9,0,0,0,2.24-1h.06v.61c0,1.63-.87,2.5-2.27,2.5a2.35,2.35,0,0,1-2.14-1.51l-1.63.68A4.05,4.05,0,0,0,87.29,44c2.19,0,4-1.29,4-4.43V32H89.57Zm-2.14,5.88a2.59,2.59,0,0,1,0-5.16A2.4,2.4,0,0,1,89.7,36a2.38,2.38,0,0,1-2.28,2.58ZM111.81,27.5h-4.47V40h1.87V35.26h2.61a3.89,3.89,0,1,0,0-7.76Zm0,6H109.2V29.24h2.65a2.145,2.145,0,0,1,0,4.29Zm11.53-1.8a3.5,3.5,0,0,0-3.33,1.91l1.66.69a1.77,1.77,0,0,1,1.7-.92,1.8,1.8,0,0,1,2,1.61v.13a4.13,4.13,0,0,0-1.95-.48c-1.79,0-3.6,1-3.6,2.81a2.89,2.89,0,0,0,3.1,2.75,2.63,2.63,0,0,0,2.4-1.2h.06v1h1.8V35.19c0-2.19-1.66-3.46-3.79-3.46Zm-.23,6.85c-.61,0-1.46-.31-1.46-1.06,0-1,1.06-1.33,2-1.33a3.32,3.32,0,0,1,1.7.42,2.26,2.26,0,0,1-2.19,2ZM133.74,32l-2.14,5.42h-.06L129.32,32h-2l3.33,7.58-1.9,4.21h1.95L135.82,32Zm-16.81,8h1.87V27.5h-1.87Z" fill="#fff"/>
  <path id="Path_261" data-name="Path 261" d="M20.44,17.54a2,2,0,0,0-.46,1.4V41.06a2,2,0,0,0,.46,1.4l.07.07L32.9,30.15v-.29L20.51,17.47Z" fill="url(#linear-gradient)"/>
  <path id="Path_262" data-name="Path 262" d="M37,34.28l-4.1-4.13v-.29L37,25.72l.09.05L42,28.56c1.4.79,1.4,2.09,0,2.89l-4.89,2.78Z" fill="url(#linear-gradient-2)"/>
  <path id="Path_263" data-name="Path 263" d="M37.12,34.22,32.9,30,20.44,42.46a1.63,1.63,0,0,0,2.08.06l14.61-8.3" fill="url(#linear-gradient-3)"/>
  <path id="Path_264" data-name="Path 264" d="M37.12,25.78l-14.61-8.3a1.63,1.63,0,0,0-2.08.06L32.9,30Z" fill="url(#linear-gradient-4)"/>
  <path id="Path_265" data-name="Path 265" d="M37,34.13,22.51,42.38a1.67,1.67,0,0,1-2,0l-.07.07.07.07a1.66,1.66,0,0,0,2,0l14.61-8.3Z" opacity="0.2" style="isolation: isolate"/>
  <path id="Path_266" data-name="Path 266" d="M20.44,42.32a2,2,0,0,1-.46-1.4v.15a2,2,0,0,0,.46,1.4l.07-.07ZM42,31.3l-5,2.83.09.09L42,31.44A1.75,1.75,0,0,0,43,30a1.86,1.86,0,0,1-1,1.3Z" opacity="0.12" style="isolation: isolate"/>
  <path id="Path_267" data-name="Path 267" d="M22.51,17.62,42,28.7A1.86,1.86,0,0,1,43,30a1.75,1.75,0,0,0-1-1.44L22.51,17.48c-1.4-.79-2.54-.13-2.54,1.47v.15c.03-1.61,1.15-2.27,2.54-1.48Z" fill="#fff" opacity="0.25" style="isolation: isolate"/>
</svg>
